<svg xmlns="http://www.w3.org/2000/svg" width="512" height="512" viewBox="0 0 512 512">
  <defs>
    <linearGradient id="grad" x1="0%" y1="0%" x2="100%" y2="100%">
      <stop offset="0%" style="stop-color:#4a90d9;stop-opacity:1" />
      <stop offset="100%" style="stop-color:#357abd;stop-opacity:1" />
    </linearGradient>
  </defs>
  
  <!-- Background rounded square -->
  <rect x="40" y="40" width="432" height="432" rx="100" fill="url(#grad)"/>
  
  <!-- Book icon -->
  <g fill="white">
    <!-- Left page -->
    <path d="M140 160 L240 160 L240 380 L140 380 Q120 380 120 360 L120 180 Q120 160 140 160 Z"/>
    <!-- Right page -->
    <path d="M260 160 L360 160 Q380 160 380 180 L380 360 Q380 380 360 380 L260 380 L260 160 Z"/>
    <!-- Spine -->
    <rect x="236" y="160" width="28" height="220"/>
    <!-- Lines on pages -->
    <rect x="150" y="200" width="70" height="4" rx="2" fill="#4a90d9" opacity="0.6"/>
    <rect x="150" y="220" width="70" height="4" rx="2" fill="#4a90d9" opacity="0.6"/>
    <rect x="150" y="240" width="70" height="4" rx="2" fill="#4a90d9" opacity="0.6"/>
    <rect x="150" y="260" width="50" height="4" rx="2" fill="#4a90d9" opacity="0.6"/>
    <rect x="280" y="200" width="70" height="4" rx="2" fill="#4a90d9" opacity="0.6"/>
    <rect x="280" y="220" width="70" height="4" rx="2" fill="#4a90d9" opacity="0.6"/>
    <rect x="280" y="240" width="70" height="4" rx="2" fill="#4a90d9" opacity="0.6"/>
    <rect x="280" y="260" width="50" height="4" rx="2" fill="#4a90d9" opacity="0.6"/>
  </g>
</svg>
